<mxfile host="app.diagrams.net" modified="2023-09-01T21:51:49.707Z" agent="Mozilla/5.0 (Windows NT 10.0; Win64; x64) AppleWebKit/537.36 (KHTML, like Gecko) Chrome/116.0.0.0 Safari/537.36" etag="JUHxKvgNabHMvQT7rdUV" version="21.6.9" type="device">
  <diagram name="Page-1" id="0xFu9z6lNrchDf7fcQPC">
    <mxGraphModel dx="1195" dy="625" grid="1" gridSize="10" guides="1" tooltips="1" connect="1" arrows="1" fold="1" page="1" pageScale="1" pageWidth="827" pageHeight="1169" math="0" shadow="0">
      <root>
        <mxCell id="0" />
        <mxCell id="1" parent="0" />
        <mxCell id="Du_2pkOJaczaI_a-ca1a-7" style="edgeStyle=orthogonalEdgeStyle;rounded=0;orthogonalLoop=1;jettySize=auto;html=1;entryX=0.5;entryY=0;entryDx=0;entryDy=0;" edge="1" parent="1" source="Du_2pkOJaczaI_a-ca1a-1" target="Du_2pkOJaczaI_a-ca1a-5">
          <mxGeometry relative="1" as="geometry" />
        </mxCell>
        <mxCell id="Du_2pkOJaczaI_a-ca1a-8" value="Log Time" style="edgeLabel;html=1;align=center;verticalAlign=middle;resizable=0;points=[];" vertex="1" connectable="0" parent="Du_2pkOJaczaI_a-ca1a-7">
          <mxGeometry x="-0.2619" y="3" relative="1" as="geometry">
            <mxPoint as="offset" />
          </mxGeometry>
        </mxCell>
        <mxCell id="Du_2pkOJaczaI_a-ca1a-9" style="edgeStyle=orthogonalEdgeStyle;rounded=0;orthogonalLoop=1;jettySize=auto;html=1;entryX=0;entryY=0.5;entryDx=0;entryDy=0;" edge="1" parent="1" source="Du_2pkOJaczaI_a-ca1a-1" target="Du_2pkOJaczaI_a-ca1a-6">
          <mxGeometry relative="1" as="geometry" />
        </mxCell>
        <mxCell id="Du_2pkOJaczaI_a-ca1a-10" value="Mark Deleted" style="edgeLabel;html=1;align=center;verticalAlign=middle;resizable=0;points=[];" vertex="1" connectable="0" parent="Du_2pkOJaczaI_a-ca1a-9">
          <mxGeometry x="0.0697" y="3" relative="1" as="geometry">
            <mxPoint y="1" as="offset" />
          </mxGeometry>
        </mxCell>
        <mxCell id="Du_2pkOJaczaI_a-ca1a-1" value="Ticket Active" style="rounded=1;whiteSpace=wrap;html=1;" vertex="1" parent="1">
          <mxGeometry x="130" y="120" width="150" height="70" as="geometry" />
        </mxCell>
        <mxCell id="Du_2pkOJaczaI_a-ca1a-3" style="edgeStyle=orthogonalEdgeStyle;rounded=0;orthogonalLoop=1;jettySize=auto;html=1;entryX=0.5;entryY=0;entryDx=0;entryDy=0;" edge="1" parent="1" source="Du_2pkOJaczaI_a-ca1a-2" target="Du_2pkOJaczaI_a-ca1a-1">
          <mxGeometry relative="1" as="geometry" />
        </mxCell>
        <mxCell id="Du_2pkOJaczaI_a-ca1a-2" value="" style="ellipse;whiteSpace=wrap;html=1;aspect=fixed;fillColor=#000000;" vertex="1" parent="1">
          <mxGeometry x="180" y="10" width="50" height="50" as="geometry" />
        </mxCell>
        <mxCell id="Du_2pkOJaczaI_a-ca1a-4" value="Ticket Created" style="text;html=1;align=center;verticalAlign=middle;resizable=0;points=[];autosize=1;strokeColor=none;fillColor=none;" vertex="1" parent="1">
          <mxGeometry x="200" y="70" width="100" height="30" as="geometry" />
        </mxCell>
        <mxCell id="Du_2pkOJaczaI_a-ca1a-12" style="edgeStyle=orthogonalEdgeStyle;rounded=0;orthogonalLoop=1;jettySize=auto;html=1;" edge="1" parent="1" source="Du_2pkOJaczaI_a-ca1a-5" target="Du_2pkOJaczaI_a-ca1a-11">
          <mxGeometry relative="1" as="geometry" />
        </mxCell>
        <mxCell id="Du_2pkOJaczaI_a-ca1a-13" value="Logged Time exceeds Allocated Time" style="edgeLabel;html=1;align=center;verticalAlign=middle;resizable=0;points=[];" vertex="1" connectable="0" parent="Du_2pkOJaczaI_a-ca1a-12">
          <mxGeometry x="-0.0625" y="-1" relative="1" as="geometry">
            <mxPoint as="offset" />
          </mxGeometry>
        </mxCell>
        <mxCell id="Du_2pkOJaczaI_a-ca1a-5" value="Ticket In Progress" style="rounded=1;whiteSpace=wrap;html=1;" vertex="1" parent="1">
          <mxGeometry x="130" y="260" width="150" height="70" as="geometry" />
        </mxCell>
        <mxCell id="Du_2pkOJaczaI_a-ca1a-6" value="Ticket Deleted" style="rounded=1;whiteSpace=wrap;html=1;" vertex="1" parent="1">
          <mxGeometry x="414" y="120" width="150" height="70" as="geometry" />
        </mxCell>
        <mxCell id="Du_2pkOJaczaI_a-ca1a-11" value="Ticket Completed" style="rounded=1;whiteSpace=wrap;html=1;" vertex="1" parent="1">
          <mxGeometry x="130" y="410" width="150" height="70" as="geometry" />
        </mxCell>
      </root>
    </mxGraphModel>
  </diagram>
</mxfile>
